<svg width="32" height="32" viewBox="0 0 32 32" fill="none" xmlns="http://www.w3.org/2000/svg">
<path d="M22.2494 15.3835C22.3429 12.774 21.937 10.1718 21.0569 7.73947C20.1769 5.30717 18.8417 3.09704 17.1348 1.24729L16 0.0390701L14.8652 1.24729C13.2249 3.00467 11.9251 5.09713 11.0415 7.40267C10.1579 9.7082 9.70818 12.1806 9.71867 14.6758C9.71867 14.9174 9.71867 15.1591 9.71867 15.3835C7.26962 13.7992 4.47 12.9584 1.61522 12.9498H0.0169144V14.6758C0.0168646 18.9547 1.48859 23.0811 4.14656 26.2545C6.8045 29.4278 10.4593 31.4219 14.4017 31.8497V31.9361H17.5983V31.8497C21.5407 31.4219 25.1955 29.4278 27.8535 26.2545C30.5114 23.0811 31.9832 18.9547 31.9831 14.6758V12.9498H30.3848C27.5191 12.9522 24.7077 13.7932 22.2494 15.3835ZM16 5.06181C17.3719 6.94723 18.3211 9.15003 18.773 11.4977C19.225 13.8453 19.1676 16.2742 18.6053 18.5938C17.555 19.8306 16.6773 21.2261 16 22.7363C15.3227 21.2261 14.445 19.8306 13.3947 18.5938C13.0823 17.3149 12.9212 15.9985 12.9153 14.6758C12.9036 11.186 13.9914 7.79565 16 5.06181ZM3.32542 16.5226C6.10174 16.9266 8.67836 18.3041 10.6592 20.4433C12.6401 22.5825 13.9157 25.365 14.2898 28.3632C11.5135 27.9592 8.93686 26.5817 6.95598 24.4425C4.97505 22.3033 3.69953 19.5208 3.32542 16.5226ZM17.7102 28.3632C18.0843 25.365 19.3599 22.5825 21.3408 20.4433C23.3216 18.3041 25.8983 16.9266 28.6746 16.5226C28.3004 19.5208 27.0249 22.3033 25.044 24.4425C23.0631 26.5817 20.4865 27.9592 17.7102 28.3632Z" fill="#A9D6CB"/>
</svg>
